<?xml version="1.0" encoding="UTF-8"?>
<svg width="271px" height="85px" viewBox="0 0 271 85" version="1.1" xmlns="http://www.w3.org/2000/svg" xmlns:xlink="http://www.w3.org/1999/xlink">
    <!-- Generator: Sketch 51.3 (57544) - http://www.bohemiancoding.com/sketch -->
    <title>Logo Copy</title>
    <desc>Created with Sketch.</desc>
    <defs></defs>
    <g id="Page-1" stroke="none" stroke-width="1" fill="none" fill-rule="evenodd">
        <g id="UI-Kit" transform="translate(-1402.000000, -35.000000)" fill="#FFFFFF">
            <g id="Logo-Copy" transform="translate(1402.000000, 35.000000)">
                <g id="Group" fill-rule="nonzero">
                    <path d="M62.6506804,16.3049309 C62.5556196,16.2041458 62.4455553,16.0939314 62.3180822,15.988509 C62.064396,15.7756547 61.7478322,15.5713021 61.3980545,15.3944646 C61.0479331,15.2185544 60.6650558,15.0670677 60.2780555,14.9418592 C59.5035966,14.6892783 58.7144778,14.5421197 58.1202908,14.4584928 C58.0325601,14.4461266 57.9508994,14.4353061 57.8724457,14.4258768 C59.1729456,13.2929723 60.0360514,11.5774621 59.7943909,8.99662246 C59.7819071,16.0676531 52.2950135,15.5023602 47.8404435,15.2527162 C52.2700457,12.815789 56.6647159,10.2346402 59.6676051,5.53623219 C58.3559957,7.21371612 56.8084524,8.50212642 55.1306873,9.57721863 C55.1672227,9.40934658 55.1839442,9.25708693 55.2087975,9.10420897 C55.2240301,8.94762114 55.2459055,8.78871462 55.25335,8.62408871 C55.2613672,8.45992654 55.271675,8.29499147 55.266063,8.12789231 C55.2676664,7.96233892 55.2580458,7.79724928 55.2435004,7.63602409 C55.2359413,7.4747989 55.2081103,7.3186748 55.1864639,7.16873383 C55.1690552,7.01786539 55.1308018,6.87781743 55.1012528,6.74534381 C55.0746816,6.61147899 55.037459,6.49044416 55.000351,6.38022982 C54.9637011,6.27047921 54.9360991,6.16737547 54.9012816,6.08266655 C54.8656625,5.99857595 54.8350827,5.92515125 54.8093132,5.86455654 C54.7951114,5.94771968 54.8143526,6.0267092 54.835999,6.11713752 C54.8575308,6.20741126 54.8686403,6.31484319 54.8871943,6.42737621 C54.9064355,6.54037296 54.9236152,6.66295357 54.9292272,6.79542719 C54.9372444,6.92697334 54.9533933,7.0626931 54.9477812,7.20645094 C54.9466359,7.34928131 54.9501864,7.49443035 54.9343811,7.64205265 C54.9256767,7.78967494 54.9120476,7.93776097 54.8874234,8.08383748 C54.8707019,8.23037773 54.8388622,8.37413557 54.8100004,8.51433811 C54.7822839,8.6548498 54.7410527,8.78809631 54.7079533,8.91778752 C54.6656913,9.04454174 54.6328209,9.16897729 54.5882683,9.28058284 C54.5477243,9.39404332 54.5068368,9.49869285 54.465262,9.59236731 C54.3852048,9.78157117 54.3096143,9.9296572 54.2556702,10.0270415 C47.7700069,13.8758871 39.803801,15.0186847 35.5403833,22.1886454 C36.1161308,19.8835735 37.0001958,17.6751131 37.5090572,15.1596601 C37.6204959,14.9619544 37.6373319,14.9250102 37.663216,14.8726081 C37.7129224,14.7708956 37.7904599,14.6246645 37.8951413,14.4586474 C37.9465657,14.3745568 38.0056637,14.2864472 38.0707174,14.1966371 C38.1331368,14.1020352 38.2087273,14.0182538 38.2828288,13.9213332 C38.3619698,13.8356968 38.4412253,13.7378487 38.5295287,13.6549947 C38.6174885,13.5707495 38.7064791,13.481867 38.8031433,13.4104518 C38.8968297,13.3296074 38.9957845,13.261902 39.095312,13.2009982 C39.1931215,13.1309742 39.2952832,13.0859919 39.3945816,13.0363723 C39.4925056,12.9810332 39.5927203,12.9550641 39.6872084,12.9204385 C39.7813529,12.8825669 39.8726341,12.86309 39.9580743,12.8490234 C40.0432853,12.8348021 40.1216246,12.8120791 40.1918321,12.808833 C40.4759836,12.7966213 40.5345089,12.7941481 40.5345089,12.7941481 C40.3256043,12.7454559 40.2641012,12.7307709 40.1930919,12.7146948 C40.1219682,12.6986186 40.0409947,12.6990824 39.9520041,12.6896531 C39.8627844,12.6797601 39.7658912,12.6740407 39.6632714,12.6854795 C39.5606516,12.6935176 39.4503582,12.6925901 39.3391486,12.7208779 C39.2272517,12.7440647 39.1091702,12.7619958 38.9941811,12.8069781 C38.8767868,12.8429948 38.7585908,12.886895 38.6438307,12.9451711 C38.5257492,12.9947907 38.4138523,13.0634235 38.3025282,13.1297376 C38.1902878,13.1945059 38.0868662,13.2767416 37.9831011,13.3490842 C37.9117483,13.4096789 37.8408536,13.4664092 37.7732803,13.5245306 C38.0640746,11.1069257 37.9281262,8.36733412 36.85142,5 C37.8034019,8.90001101 37.615571,11.8553939 36.9751135,14.4289684 C36.9061658,14.5345454 36.8746698,14.667019 36.8795946,14.7974831 C36.0060665,18.047956 34.4458102,20.7186056 33.6297766,23.9800536 C33.4420602,23.5463068 33.2786244,23.1935591 33.0747592,22.842048 C33.024022,22.7545567 32.972483,22.6652104 32.9201423,22.5747821 C32.863564,22.4891457 32.8060694,22.4025818 32.7478876,22.3150905 C32.6371361,22.1362434 32.5005006,21.9798101 32.3745165,21.815648 C32.2421186,21.6590601 32.0994129,21.5162298 31.9606013,21.3786551 C31.8085041,21.2627213 31.6728994,21.1232917 31.5193133,21.0390465 C31.3658417,20.9568108 31.228748,20.8479877 31.0791705,20.8096523 C31.0070159,20.7841468 30.9364648,20.7591051 30.8685479,20.7345272 C30.7353483,20.6952643 30.7021343,20.6909361 30.6698366,20.6866079 C30.5415618,20.6705318 30.4241675,20.6558468 30.3197152,20.6425531 C30.2152629,20.647345 30.1247834,20.6615662 30.0509109,20.6675948 C29.9033949,20.6832072 29.8193291,20.6921727 29.8193291,20.6921727 C29.8193291,20.6921727 29.9033949,20.6992833 30.0509109,20.711495 C30.1242108,20.7190694 30.2132014,20.7223155 30.3137596,20.7366913 C30.4122563,20.7683798 30.5233514,20.8037783 30.6446398,20.8425774 C30.7662717,20.8889509 30.7963934,20.9059546 30.8272022,20.9234219 C30.8882473,20.9585112 30.9515829,20.9943733 31.0164075,21.0313176 C31.1496071,21.0908302 31.2688339,21.2205214 31.400201,21.3208428 C31.5315681,21.4225553 31.6440376,21.5785248 31.7695636,21.7068248 C31.8835219,21.858157 31.9985111,22.0108804 32.1035361,22.1761246 C32.2026054,22.3501798 32.3102646,22.5100138 32.3943303,22.6948894 C32.4386539,22.783772 32.4826338,22.8721908 32.5262701,22.959373 C32.5649816,23.0505742 32.6036931,23.1414662 32.6410302,23.2303487 C32.7924402,23.5846423 32.9078875,23.935535 33.0010012,24.236499 C33.0899918,24.5407092 33.157107,24.797 33.1960476,24.9767746 C33.2363625,25.1531485 33.2517097,25.2477504 33.2537712,25.2539335 C32.4274298,30.8669815 33.3045085,37.9228635 32.9685889,43.8455318 C32.0671152,40.3877694 30.1385271,37.1552275 29.2104822,33.7013296 C29.2160942,33.5603541 29.1817349,33.41706 29.1075188,33.3035995 C28.4159804,30.5242814 28.2131459,27.3331665 29.241062,23.1219893 C28.0782284,26.7576714 27.9317432,29.7163005 28.2457873,32.3263554 C28.172831,32.2629783 28.0960952,32.2019199 28.0190158,32.1366878 C27.9065464,32.0586258 27.7953367,31.970207 27.6741629,31.8997192 C27.5535617,31.8283041 27.4330751,31.7541065 27.3054875,31.7006224 C27.1814504,31.6372453 27.0538628,31.590408 26.9269625,31.5511451 C26.8025818,31.5029167 26.6753378,31.4831307 26.554393,31.4579344 C26.4345935,31.4267096 26.3150231,31.4281008 26.2042716,31.419599 C26.0935201,31.4072327 25.9887242,31.4134159 25.8927472,31.4243909 C25.7966557,31.4347477 25.7090395,31.4342839 25.6323037,31.4512875 C25.5559115,31.4692186 25.4892544,31.4843673 25.4342795,31.497661 C25.4914305,31.5477444 25.5576294,31.5506814 25.633678,31.5539275 C25.709383,31.5576374 25.7942505,31.5817516 25.8861044,31.5973641 C25.9778438,31.6125127 26.0767986,31.6338445 26.1783876,31.6744986 C26.2804348,31.7114429 26.388323,31.7397307 26.4944933,31.7998617 C26.6013507,31.8538095 26.7121022,31.9020379 26.8175853,31.9776267 C26.92513,32.0437862 27.0317583,32.1165926 27.1330038,32.2042385 C27.2374561,32.2813731 27.3337767,32.37783 27.4284938,32.4682583 C27.5238982,32.5576046 27.6093383,32.6636453 27.694893,32.755774 C27.7743776,32.8602689 27.8561527,32.951161 27.923726,33.0533372 C27.9941626,33.1502579 28.0579564,33.2448598 28.113733,33.3362156 C28.2268897,33.5150627 28.3107264,33.6735055 28.3643269,33.7832561 C28.457097,33.9891544 28.4735895,34.018988 28.4921435,34.0468121 C29.0801459,36.8095904 30.034533,39.1941156 30.6562074,41.6831357 C26.0545796,33.9418534 17.4528409,32.7081639 10.5335631,28.6946924 C10.3915447,28.447367 10.3095404,28.2869148 10.2232986,28.0825622 C10.178746,27.9813134 10.134308,27.8683167 10.0907862,27.7457361 C10.0424541,27.6256287 10.007064,27.4908364 9.96113703,27.3540346 C9.92574695,27.2139866 9.88085078,27.0697651 9.85107271,26.9179692 C9.81992027,26.766637 9.78556096,26.6114403 9.76735053,26.4529976 C9.74077933,26.2950185 9.72600483,26.13503 9.71649875,25.9756597 C9.69931909,25.8158257 9.70355674,25.6592379 9.70218237,25.5051233 C9.69622676,25.3499267 9.71340641,25.2033864 9.7222253,25.0613289 C9.72818091,24.9180348 9.74707854,24.786025 9.76769412,24.6640627 C9.78808064,24.5425641 9.79999187,24.4261666 9.82312714,24.3287823 C9.846606,24.2313979 9.86722159,24.1462253 9.88405765,24.0757376 C9.82404339,24.1214928 9.79082939,24.2011006 9.75257602,24.2918381 C9.71443719,24.3836576 9.68534631,24.4947994 9.64526045,24.6130518 C9.60494552,24.731768 9.56497419,24.8623867 9.5362269,25.007072 C9.50473087,25.1503661 9.46338517,25.3016982 9.44437302,25.4644692 C9.42089415,25.6261581 9.39111609,25.7946485 9.38264079,25.9691674 C9.36683551,26.1432226 9.35641318,26.3214514 9.35847474,26.5002985 C9.35251913,26.6805369 9.36339958,26.8589202 9.37210394,27.0362216 C9.37977751,27.2139866 9.40359997,27.3852594 9.42009244,27.5546773 C9.44666364,27.7197669 9.4649886,27.8843928 9.49751542,28.03387 C7.69330806,26.9052937 6.02195671,25.5136251 4.60600955,23.7019672 C7.84849761,28.7750731 12.5938619,31.5625839 17.3765633,34.1938161 C12.5663744,34.4634007 4.48288869,35.0736759 4.46891591,27.4382798 C4.20812875,30.2251723 5.13972416,32.0774843 6.54398915,33.3006626 C6.45912166,33.3110193 6.37081823,33.3224581 6.27655919,33.336061 C5.63518541,33.4263347 4.78284547,33.5858596 3.9466544,33.8582266 C3.52895973,33.9934826 3.11538817,34.1567173 2.7372067,34.3468486 C2.35936882,34.5379074 2.01772275,34.7583361 1.74364999,34.9881941 C1.60632729,35.1022729 1.48710048,35.220989 1.38482427,35.3296576 C1.28495321,35.4442001 1.20088743,35.5462218 1.13881161,35.6414421 C1.07192549,35.7289334 1.03126697,35.8127148 1,35.8641894 C1.04272008,35.825854 1.08933421,35.7511927 1.16297766,35.675913 C1.23169628,35.5936774 1.32309204,35.5071135 1.42903325,35.4129753 C1.53806679,35.323629 1.66244749,35.2285634 1.80469503,35.1404537 C2.3707074,34.7785859 3.19074959,34.5269324 4.01857989,34.4029606 C4.84663925,34.2729602 5.68294485,34.2548745 6.30702445,34.2695595 C6.61935057,34.2766701 6.87899242,34.2922825 7.05949333,34.30604 C7.23758908,34.3221161 7.3395217,34.3315454 7.3395217,34.3315454 C7.52380213,34.323971 7.6299724,34.2411171 7.70052352,34.1196185 C9.0003362,34.8673138 10.4916448,35.2509772 11.7911139,35.4284331 C14.8839099,35.8532144 18.0367201,36.1071865 20.8870539,36.9610772 C20.3329528,37.3693185 19.634428,37.9254913 18.9763327,38.5697738 C18.6279293,38.9098461 18.2918953,39.2731051 17.995718,39.643011 C17.7003425,40.0138444 17.4468853,40.3931796 17.2583672,40.7465457 C17.163421,40.9224558 17.0865707,41.0937286 17.0228914,41.2469157 C16.9629917,41.4039673 16.9138579,41.5420057 16.883049,41.6618039 C16.845941,41.7772739 16.8318537,41.8755857 16.8175373,41.939272 C16.8466282,41.8822326 16.8687327,41.7887127 16.9156904,41.6811262 C16.9560053,41.5695206 17.015905,41.4432301 17.0874869,41.3013272 C17.1631919,41.1628251 17.2514954,41.0104108 17.3580092,40.85676 C17.7792544,40.2314907 18.4668987,39.5773152 19.1972631,39.0375278 C19.9262531,38.4917117 20.6948709,38.0455987 21.2758868,37.7381424 C21.566452,37.5838732 21.8110903,37.4651571 21.9817415,37.3852401 C23.620108,37.9415675 25.0756828,38.7551132 26.3464046,39.9466029 C29.8303241,43.2126882 31.6756481,48.1329161 31.8364497,55.0796658 C31.7534147,54.9836727 31.6625916,54.8813418 31.5616897,54.7717458 C31.4439518,54.6466919 31.3146463,54.5148366 31.1758347,54.3795806 C31.0325564,54.2515897 30.8891635,54.1052041 30.7261859,53.9795319 C30.5677894,53.8455125 30.4012613,53.7150484 30.2246545,53.5975689 C30.0540032,53.4686506 29.8665159,53.3701842 29.6838389,53.264298 C29.5009329,53.1598031 29.3049703,53.0922523 29.1209189,53.0073888 C28.9267888,52.9588513 28.7410195,52.8886727 28.5553647,52.8639402 C28.368221,52.8540472 28.1916141,52.8059733 28.0208483,52.8319425 C27.8512279,52.8560567 27.6906554,52.8461637 27.5473771,52.896247 C27.4051295,52.9421568 27.2743351,52.9840475 27.1586587,53.02161 C27.0461893,53.0701476 26.9536482,53.135998 26.8754235,53.1783525 C26.7212647,53.2680079 26.6329613,53.3196371 26.6329613,53.3196371 C26.6329613,53.3196371 26.7255024,53.2845478 26.8874492,53.2233348 C26.9684227,53.196129 27.0637125,53.1485188 27.1772128,53.1210039 C27.2918583,53.1052369 27.4211639,53.0874604 27.562037,53.0681381 C27.7015358,53.0449514 27.8556946,53.0832868 28.0145491,53.0883879 C28.1744345,53.091634 28.3383284,53.1695415 28.5080634,53.2078769 C28.676653,53.261361 28.8437538,53.3593637 29.0152068,53.434025 C29.1792152,53.5457851 29.3498664,53.6368318 29.5092936,53.764668 C29.6680336,53.8938955 29.8292933,54.0123025 29.9757785,54.1616252 C30.126845,54.2978087 30.2684053,54.4463584 30.4019485,54.5962994 C30.5392712,54.7372748 30.6591852,54.8988092 30.7787556,55.0388571 C30.8939738,55.1870977 31.0006022,55.3299281 31.0969228,55.4633292 C31.2872734,55.7347687 31.4393706,55.9678728 31.5378673,56.1357449 C31.6370512,56.2994433 31.6846961,56.3917266 31.688132,56.3968277 C31.7649823,56.5028684 31.8046101,56.5378031 31.8459558,56.5646997 C31.845154,56.6464717 31.8473301,56.7253066 31.8459558,56.8073877 C31.7628062,62.1248819 31.4123413,67.7529239 32.1593127,72.3494649 C30.1759788,72.3867182 28.3482926,72.4437576 26.558058,72.7073137 C24.7661055,72.9192406 23.0120627,73.2891465 21.328342,73.7364961 C20.4883714,73.9804207 19.6605411,74.1948209 18.8621453,74.4999585 C18.0603135,74.769543 17.2825333,75.0811729 16.5312097,75.4048599 C16.1541735,75.5566559 15.7872161,75.7361213 15.4262143,75.913268 C15.0658997,76.0902602 14.7111971,76.2646246 14.3625646,76.4358973 C13.6762947,76.8331636 13.0090369,77.1837472 12.3869043,77.590752 C11.1420665,78.4007424 10.0318027,79.2261906 9.1051321,80.0854915 C8.64185407,80.5133643 8.20514725,80.897646 7.83750263,81.3335568 C7.46493318,81.7555556 7.11023058,82.1064484 6.82848424,82.4995411 C6.53791901,82.8733115 6.28274387,83.2081281 6.067311,83.5052276 C5.86333123,83.8222678 5.69794842,84.1003542 5.5613129,84.3192371 C5.29605902,84.7630314 5.15472773,85 5.15472773,85 C5.15472773,85 5.3435894,84.8330554 5.69726123,84.5201889 C5.87043215,84.3646831 6.08414706,84.1726968 6.33542814,83.9468579 C6.60354529,83.7523984 6.90464737,83.5220767 7.2369019,83.2630034 C7.56033753,82.9886269 7.96165427,82.7685074 8.3751113,82.4967587 C8.58722277,82.3709319 8.7932641,82.2138804 9.02667834,82.0906814 C9.25688572,81.9645455 9.49556839,81.8340814 9.74238276,81.6988254 C10.2267345,81.413783 10.7643432,81.1692401 11.3250871,80.9078481 C11.8770121,80.6246607 12.4886079,80.4145887 13.1065028,80.1542788 C13.7300097,79.9084993 14.3923427,79.6959541 15.0677322,79.4596039 C15.7588124,79.2742644 16.4544739,79.019674 17.1918247,78.8527294 C17.5577513,78.7599824 17.9289464,78.6661533 18.3046082,78.5710877 C18.6788956,78.4716938 19.0654379,78.4083167 19.4512929,78.3237624 C20.2226594,78.1549628 21.016474,78.0130599 21.8232306,77.8778039 C22.6303308,77.7470306 23.4550687,77.6392896 24.2870222,77.5258291 C24.7047168,77.4839383 25.1249312,77.4415839 25.5473216,77.3990748 C25.9682232,77.3429629 26.393706,77.3122018 26.8205631,77.2819045 C28.5262738,77.1342822 30.2645113,77.0892999 32.0011453,77.0735329 C32.8692905,77.0953284 33.7391537,77.0693593 34.6028322,77.1284082 C35.0349578,77.1528316 35.4665108,77.1702989 35.8971474,77.1835927 C36.3268679,77.2152812 36.7552139,77.2466606 37.1820711,77.2777309 C38.0368162,77.3302875 38.8789629,77.4465304 39.7162992,77.5204188 C40.1337649,77.5666377 40.5461911,77.6366617 40.9573575,77.6924645 C41.3676077,77.7552233 41.7787741,77.7909309 42.1805489,77.871157 C42.987191,78.0085772 43.7813492,78.1470793 44.5528302,78.3164972 C44.9386853,78.4010515 45.3252275,78.4644286 45.6995149,78.5644408 C46.0750622,78.6591973 46.4463718,78.7531809 46.8121839,78.845155 C47.5496492,79.0120996 48.2454252,79.2683905 48.9368491,79.4526478 C49.6123531,79.6896164 50.2745715,79.9033982 50.8984221,80.1479411 C51.5164315,80.408251 52.1277982,80.6195596 52.6797232,80.9024379 C53.2404671,81.1638298 53.7778467,81.4093002 54.2625421,81.6940335 C54.5087838,81.8295987 54.7474665,81.9606811 54.978132,82.0871261 C55.2114317,82.2103251 55.4179311,82.3667583 55.6295845,82.4932034 C56.0421253,82.7652612 56.4458471,82.9876994 56.7641289,83.257284 C57.0927184,83.513884 57.3929042,83.7421962 57.6609069,83.9366557 C57.9150512,84.16605 58.1312858,84.361437 58.3065183,84.5198797 C58.6601901,84.8329008 58.8487082,84.9998454 58.8487082,84.9998454 C58.8487082,84.9998454 58.7071478,84.7634952 58.4413213,84.3197008 C58.3059456,84.1011271 58.1388449,83.8321608 57.9426532,83.515739 C57.7269913,83.2186394 57.4708999,82.8819679 57.1766697,82.5052605 C56.8896549,82.1070667 56.5375865,81.7595747 56.1642153,81.3371121 C55.7962271,80.9015104 55.360093,80.516765 54.8963568,80.0893559 C53.9695717,79.2306734 52.8594224,78.4058434 51.6145846,77.5964714 C50.9929102,77.18823 50.3251942,76.8396559 49.6389243,76.442235 C49.2904064,76.2704985 48.9355892,76.0965979 48.5757327,75.9189874 C48.2147309,75.7418407 47.847888,75.5623753 47.4707373,75.4111977 C46.7199864,75.085192 45.941748,74.775417 45.1402599,74.5058324 C44.341864,74.2017769 43.5147209,73.9841306 42.6742922,73.742061 C40.9914878,73.2903831 39.2365287,72.9266603 37.4450343,72.7097869 C36.6064381,72.5868972 35.759023,72.5108446 34.908172,72.4573605 C32.7778948,67.6340532 33.415489,60.2441275 33.4922248,53.3533351 C34.5731687,50.0492235 34.6431472,45.7859535 34.557707,41.4031944 C34.6152016,41.3235865 34.6701765,41.2404234 34.7283583,41.1632888 C34.863963,41.0250958 34.985595,40.8564508 35.1273844,40.7467002 C35.2694028,40.6383408 35.3975631,40.4987566 35.5416431,40.434452 C35.6118506,40.3947254 35.6801111,40.3554625 35.746081,40.3182091 C35.8777917,40.2515859 35.9106621,40.2410746 35.9433034,40.2307178 C36.0744415,40.1886725 36.1940119,40.1503371 36.3007548,40.1163298 C36.4092157,40.1007174 36.5054218,40.0973167 36.5846772,40.0892786 C36.744219,40.0761395 36.834813,40.0685651 36.834813,40.0685651 C36.834813,40.0685651 36.744219,40.0586721 36.5849063,40.0416685 C36.5050782,40.0345579 36.4072687,40.0194092 36.2947992,40.0141536 C36.1823297,40.0283748 36.0554293,40.0439872 35.9169613,40.0614545 C35.7741411,40.0874237 35.7386365,40.1002537 35.7023302,40.1129291 C35.6291448,40.1388983 35.5530962,40.1659495 35.4753296,40.1937736 C35.3138409,40.2355097 35.1659813,40.3526801 35.0002549,40.4417172 C34.8416294,40.5287448 34.7005272,40.6687928 34.5456813,40.7902913 C34.5112074,39.2548649 34.4647078,37.7110912 34.4407708,36.1945233 C34.4792533,35.9447247 34.5156741,35.9125724 34.5472847,35.8689813 C34.5904629,35.8094687 34.6343283,35.724296 34.7265258,35.5725001 C34.8180361,35.4173035 34.9589092,35.201203 35.1347144,34.9495495 C35.2241631,34.8255777 35.3231179,34.6935678 35.4295172,34.5564568 C35.5398106,34.4269202 35.6510202,34.2768247 35.7782642,34.1463606 C35.9019577,34.0078584 36.0330958,33.8701291 36.1728236,33.7438386 C36.3081993,33.6056456 36.4573187,33.495895 36.6046056,33.3764059 C36.7522361,33.2581535 36.9106325,33.1734446 37.0622716,33.0703409 C37.2211262,33.0012444 37.3758576,32.9105069 37.5320779,32.8608872 C37.6888709,32.8250251 37.8409681,32.7525278 37.9890567,32.7497454 C38.1362291,32.7451081 38.2787057,32.7090913 38.4077822,32.7308869 C38.5384621,32.748818 38.657918,32.7653578 38.7640882,32.779579 C38.8692277,32.8050845 38.9571876,32.8486756 39.032549,32.874181 C39.182241,32.9309112 39.2681393,32.9636818 39.2681393,32.9636818 C39.2681393,32.9636818 39.1864787,32.9159171 39.043544,32.8325994 C38.9710458,32.7938003 38.8851475,32.7327418 38.7809243,32.6877595 C38.6737233,32.6532886 38.5532366,32.6140257 38.4209533,32.5715166 C38.2883263,32.5251431 38.1395505,32.5341087 37.9825285,32.5118494 C37.8245902,32.4877352 37.6608108,32.5320992 37.4875254,32.541683 C37.3157288,32.5648698 37.1437032,32.6291743 36.9638895,32.6746204 C36.7934673,32.7531462 36.6120501,32.8155958 36.4424297,32.9125164 C36.2732673,33.0103645 36.0995238,33.1017203 35.9415855,33.2213639 C35.7778061,33.3297233 35.6237619,33.4507581 35.476704,33.5747299 C35.3262102,33.6915911 35.1932397,33.8268472 35.0603837,33.9455633 C34.9322235,34.0709263 34.8123095,34.1930432 34.7033905,34.3083586 C34.6101622,34.4100712 34.5259819,34.5051368 34.448788,34.5935556 C34.5977929,28.1601605 36.3065959,23.6036554 39.5333932,20.5787122 C40.7101995,19.4751776 42.0582298,18.7222266 43.5104833,18.1767197 C43.7337043,18.2807509 43.9604757,18.3905015 44.2296236,18.5333319 C44.768034,18.8180652 45.4793863,19.2315622 46.1547758,19.7367241 C46.831196,20.2366304 47.4681031,20.8421137 47.8579667,21.4216278 C47.956807,21.5644582 48.0384676,21.7054336 48.1086752,21.833579 C48.1748741,21.9651252 48.2305362,22.0822956 48.2677588,22.1855539 C48.311166,22.2854115 48.3315526,22.3715116 48.3501066,22.4282418 C48.3449527,22.3653285 48.3318962,22.274591 48.2975368,22.1676228 C48.2691331,22.0569447 48.2238934,21.929263 48.1682313,21.7836503 C48.1089042,21.6417474 48.0382386,21.4833046 47.9499352,21.3200699 C47.7755044,20.9928276 47.5406013,20.6413165 47.2667576,20.297998 C46.9926848,19.9549887 46.6811604,19.6186263 46.3582974,19.3037503 C45.7485342,18.7067688 45.1020065,18.1921776 44.5889075,17.8137698 C47.2287332,17.0234109 50.1483583,16.7878335 53.0127794,16.3942771 C54.2162715,16.2301149 55.5972867,15.874894 56.8012369,15.1823831 C56.8662906,15.2950707 56.9650163,15.371587 57.0790892,15.379625 C57.1356675,15.3782338 57.2298121,15.369732 57.3949658,15.3550471 C57.5620666,15.3422171 57.8025818,15.3275321 58.0917726,15.3215036 C58.6700398,15.3082098 59.4444986,15.3247497 60.2112839,15.4454754 C60.9778401,15.5598634 61.7372954,15.793122 62.2613894,16.1280933 C62.3933291,16.2094015 62.5085473,16.2973565 62.6092201,16.3802105 C62.7076023,16.4677018 62.7920116,16.5476188 62.8554618,16.6238259 C62.9239514,16.6938499 62.9669005,16.7629464 63,16.8059192 C62.9778955,16.7524351 62.9401003,16.6748368 62.878368,16.5935286 C62.8208735,16.5055735 62.7427633,16.4109716 62.6506804,16.3049309 Z" id="path4686"></path>
                    <path d="M18.8479028,26.6090098 C18.174963,26.0563421 17.3835798,25.7125597 16.6109313,25.3221922 C15.9960816,25.0115425 15.35357,24.6109612 15,24 C15.1561643,24.7554494 15.4370588,25.5734274 15.9452842,26.1679469 C16.6751825,27.0216732 17.6809458,27.5423293 18.5438728,28.2409799 C19.1178583,28.7055844 19.5957813,29.3329873 19.9086128,30 C20.1876213,28.7906581 19.8260041,27.4129126 18.8479028,26.6090098 Z" id="path4688"></path>
                    <path d="M18.3040476,29.6357408 C17.147558,28.8241988 15.613012,28.2461681 15.03114,27 C14.9611089,27.5557362 15.0093774,28.1380632 15.1741318,28.6788203 C15.463603,29.629935 16.2537547,30.2879703 17.2760413,30.742104 C17.5415178,30.860079 17.8228977,30.9503019 18.1055332,31.0359963 C18.3898427,31.122039 18.6780584,31.2019275 18.9558112,31.3021366 C19.2154285,31.3959591 19.465141,31.4929169 19.6636554,31.6662796 C19.783629,31.7711333 19.8959299,31.8837668 20,32 C19.9995815,31.9996516 19.7550307,30.6540873 18.3040476,29.6357408 Z" id="path4690"></path>
                    <path d="M41.6430158,14.5733719 C42.3080038,14.7637971 42.9611416,15.0027871 43.6475584,14.9999754 C44.6456327,14.9956302 45.5594727,14.1380779 46,13 C45.4746457,13.3257676 44.8684146,13.5138923 44.2861798,13.5108251 C43.411149,13.5060964 42.5385869,13.2683845 41.6660248,13.4728679 C41.0581148,13.6156228 40.4753864,14.0813338 40,14.5788674 C40.5221942,14.3242856 41.113514,14.4220542 41.6430158,14.5733719 Z" id="path4692"></path>
                    <path d="M45.5960561,10.7155343 C45.3717764,10.7477043 45.1626966,10.6837534 44.9495708,10.6111114 C44.7212451,10.5332808 44.4995899,10.4317117 44.2759664,10.3376663 C44.0540925,10.2443992 43.8295941,10.1559317 43.598316,10.1006719 C42.7083052,9.88793466 41.8359001,9.98794709 41.0913266,10.6369253 C40.6682462,11.0061022 40.2899998,11.4797019 40,12 C41.0984345,11.269559 42.373034,11.6784296 43.5586214,11.6622148 C45.0463468,11.6419789 46,10.6266776 46,10.6266776 C45.8667007,10.665074 45.7315424,10.6960766 45.5960561,10.7155343 Z" id="path4694"></path>
                    <path d="M28,29 C27.5840316,29.3028674 27.0823828,29.5242625 26.578707,29.6120761 C25.8219093,29.7437276 25.040786,29.7162945 24.3104762,29.9900744 C23.8018001,30.1807279 23.3527218,30.5878136 23,31 C23.4213741,30.7456576 23.9441051,30.7212572 24.4188605,30.7426248 C25.0156495,30.7700579 25.6077085,30.8320926 26.2008487,30.7245658 C27.0630575,30.5675489 27.752419,29.8428453 28,29 Z" id="path4696"></path>
                    <path d="M28,29.0233404 C27.9122823,29.0731604 27.8222939,29.1173931 27.7308715,29.1534001 C27.5794568,29.2128427 27.4288787,29.1976328 27.2741179,29.1757493 C27.1088405,29.1524689 26.9453557,29.1107194 26.7815124,29.0745572 C26.6187446,29.0390158 26.4549013,29.0070441 26.2899824,29.0014568 C25.6540886,28.9800389 25.0624122,29.192356 24.6147411,29.7993531 C24.3601924,30.1446788 24.1473514,30.561708 24,31 C24.6838158,30.2761353 25.6046129,30.3855531 26.4212004,30.1873595 C27.4452511,29.9398114 28,29.0233404 28,29.0233404 Z" id="path4698"></path>
                    <path d="M27.5787454,23.3878817 C28.0820022,23.4755635 28.5839077,23.6971117 29,24 C28.7522906,23.1570966 28.0625422,22.432343 27.2007622,22.2754532 C26.6077732,22.1679189 26.0160004,22.2298201 25.4188221,22.2572551 C24.9436742,22.278762 24.4213627,22.25436 24,22 C24.3527122,22.4120769 24.8017784,22.8191907 25.3104408,23.0099952 C26.040866,23.2836562 26.8219682,23.2558075 27.5787454,23.3878817 Z" id="path4700"></path>
                    <path d="M28.2741613,24.8251994 C28.4285544,24.8037812 28.579482,24.7881056 28.7308876,24.8475487 C28.8223045,24.8835561 28.912646,24.9277892 29,24.9776097 C29,24.9776097 28.4452843,24.0609747 27.4210558,23.8126483 C26.6048756,23.6150736 25.683775,23.7238716 25,23 C25.1473426,23.438917 25.3601709,23.855795 25.6147044,24.2006584 C26.0627073,24.8076613 26.6543483,25.0198252 27.2898455,24.9985623 C27.4551131,24.9928197 27.6189466,24.9614685 27.7812267,24.9254612 C27.9454187,24.8902299 28.1088937,24.84848 28.2741613,24.8251994 Z" id="path4702"></path>
                    <path d="M34.3104762,15.0098573 C35.040786,15.2836562 35.8224499,15.2558075 36.5788421,15.3878817 C37.0819774,15.4751499 37.5840316,15.6971117 38,16 C37.752419,15.1570966 37.062652,14.432343 36.2009838,14.2754532 C35.6078437,14.1679189 35.0156495,14.2298201 34.4189956,14.257393 C33.9435645,14.2788998 33.4215093,14.2544978 33,14 C33.3531272,14.4120769 33.8018001,14.8191907 34.3104762,15.0098573 Z" id="path4704"></path>
                    <path d="M35.290204,17.998541 C35.4554716,17.9928003 35.6193051,17.9614591 35.7817047,17.9254634 C35.9455382,17.8894676 36.1088937,17.847576 36.2741613,17.824458 C36.4284349,17.8030467 36.579482,17.7873761 36.7308876,17.8468002 C36.822424,17.882796 36.912646,17.9270149 37,17.9768194 C37,17.9768194 36.4451648,17.0604788 35.4210558,16.8122321 C34.6048756,16.614876 33.6836555,16.7234839 33,16 C33.1472231,16.4386209 33.3601709,16.8555201 33.6145849,17.2001176 C34.0628268,17.8081668 34.6542288,18.0199523 35.290204,17.998541 Z" id="path4706"></path>
                    <path d="M32.0805818,30.6615703 C31.7044494,30.504108 31.3015905,30.4512396 30.9009966,30.3765093 C30.5822428,30.3166393 30.2393296,30.2213331 30,30 C30.1686632,30.3077802 30.4014999,30.6274202 30.7087779,30.8233193 C31.1499899,31.1039508 31.6730421,31.2072587 32.1539662,31.4048725 C32.4742299,31.5360434 32.7716932,31.7498035 33,32 C32.9699517,31.4428806 32.6274914,30.8907623 32.0805818,30.6615703 Z" id="path4708"></path>
                    <path d="M31.2502634,30.9739466 C30.8209394,30.6925056 30.3016692,30.5792859 30,30 C30.0356014,30.2986491 30.1095769,30.5969765 30.2141629,30.8592795 C30.3981589,31.3203602 30.7021572,31.5669025 31.0548439,31.6781923 C31.1464537,31.7073013 31.2401708,31.7195239 31.3335551,31.7293341 C31.4276049,31.7391444 31.5222093,31.7455773 31.6154827,31.7637504 C31.7027671,31.780476 31.7875007,31.8005789 31.8650252,31.8671598 C31.9118283,31.907044 31.9566351,31.9522354 32,32 C31.9998891,32.0001608 31.7891643,31.3272756 31.2502634,30.9739466 Z" id="path4710"></path>
                    <path d="M7.83520526,23.5343118 C8.29470528,23.9215589 8.67696125,24.4446648 8.92695329,25 C9.15003605,23.9925873 8.86076126,22.8439855 8.07822971,22.1741125 C7.54004406,21.7136057 6.90671488,21.4268891 6.28876243,21.1018693 C5.79694723,20.8431674 5.28302799,20.5089746 5,20 C5.12505609,20.6297104 5.34958041,21.3112356 5.75610279,21.8066987 C6.34017838,22.5184699 7.14481398,22.9524494 7.83520526,23.5343118 Z" id="path4712"></path>
                    <path d="M7.64355468,24.6358922 C6.71864502,23.8245604 5.49067419,23.2463254 5.02502082,22 C4.96877992,22.5553553 5.00756215,23.1380276 5.13923517,23.6789617 C5.3708624,24.6302069 6.00297285,25.2883133 6.82059832,25.7424427 C7.03303434,25.8604471 7.25826451,25.9507183 7.48416103,26.0359976 C7.71165682,26.1222475 7.9420846,26.2019801 8.16438277,26.3020966 C8.37202099,26.3958345 8.57179615,26.492623 8.73078998,26.6665095 C8.82701257,26.7713406 8.91643828,26.8842143 9,27 C9,27.0001387 8.80422301,25.6542515 7.64355468,24.6358922 Z" id="path4714"></path>
                    <path d="M50.272751,5.70298948 C50.4817775,7.24326444 51.6316841,8.51088762 53,9 C52.5265627,8.24321831 52.1911298,7.33862336 52.076061,6.43901089 C51.9022197,5.08710094 51.9913557,3.70017531 51.5830763,2.3868795 C51.2987272,1.47218121 50.65614,0.65048902 50,0 C50.3932931,0.76370179 50.4045002,1.69362428 50.3426002,2.53607677 C50.264932,3.59526665 50.1295339,4.64338439 50.272751,5.70298948 Z" id="path4716"></path>
                    <path d="M54.8400253,5.8926203 C54.9071757,5.61326305 54.9684134,5.33140622 54.9882629,5.04621663 C55.0652677,3.94842714 54.772171,2.91657881 53.8474101,2.1156436 C53.3220322,1.66036388 52.6802321,1.27423907 52,1 C53.0924257,2.21360313 52.8576105,3.80011903 53.1129791,5.21952049 C53.4335272,7.00052712 54.8383359,8 54.8383359,8 C54.7659768,7.84633566 54.7022051,7.68862438 54.6516663,7.52900867 C54.5686082,7.26500595 54.6035207,7.00493113 54.6478653,6.73902398 C54.6954478,6.45502466 54.7723118,6.17423907 54.8400253,5.8926203 Z" id="path4718"></path>
                    <path d="M11.9168479,40.5731662 C12.6925546,40.763651 13.4545925,41.0027337 14.2556695,40.9999764 C15.4202133,40.9958404 16.4863829,40.1379691 17,39 C16.3868696,39.3258234 15.6796106,39.5140105 15.0005178,39.5107936 C13.9796003,39.5061981 12.9617894,39.2682643 11.9436678,39.4727656 C11.2344413,39.6154569 10.5548307,40.0816738 10,40.5791403 C10.6091954,40.3239733 11.2992648,40.4216284 11.9168479,40.5731662 Z" id="path4720"></path>
                    <path d="M14.1518388,38.6621501 C15.8873618,38.6422148 17,37.6265666 17,37.6265666 C16.8451962,37.6650381 16.6872963,37.6956988 16.5293963,37.7154008 C16.2679499,37.7478102 16.0238185,37.683691 15.7753297,37.6109448 C15.5092964,37.5331857 15.2500287,37.4315276 14.9893849,37.3376804 C14.7304611,37.2446493 14.4686707,37.1561648 14.1987386,37.1007891 C13.1601769,36.8877968 12.1425997,36.9880559 11.2737489,37.6369423 C10.779638,38.0058026 10.3386191,38.4795852 10,39 C11.2816611,38.2693908 12.7686952,38.6781216 14.1518388,38.6621501 Z" id="path4722"></path>
                    <path d="M43.37991,28.8197973 C44.1063091,28.065986 44.869565,27.3601559 45.4263958,26.4487919 C46.2356565,25.1239751 46.1509387,23.3415121 45.4087628,22 C45.2955405,22.9134684 44.9835827,23.841668 44.506034,24.6106313 C43.7885178,25.7666719 42.8477389,26.7640374 42.3345265,28.0563055 C41.9769616,28.9565861 41.9530974,30.0388309 42.0468306,31 C42.2252816,30.1387217 42.8019992,29.4199844 43.37991,28.8197973 Z" id="path4724"></path>
                    <path d="M44.9679169,20 C44.9010006,20.1592401 44.8238792,20.3168999 44.7343659,20.468725 C44.5868294,20.7193762 44.3508001,20.8997673 44.1019416,21.079429 C43.8357343,21.2717327 43.5495543,21.4439794 43.2705178,21.6220609 C42.9929392,21.7991699 42.7184221,21.9813844 42.4734998,22.1897336 C41.5301116,22.9912826 40.9290314,23.9520717 41.006736,25.0932518 C41.0509094,25.7418817 41.2410158,26.4032751 41.5519797,27 C41.6753155,25.4458896 43.1353732,24.3572222 44.0775951,23.1196471 C45.2606573,21.5662661 44.9679169,20 44.9679169,20 Z" id="path4726"></path>
                    <path d="M3.57367387,34.4208368 C4.06434185,34.454414 4.56827112,34.6663157 5,35 C4.668222,33.9230939 3.92767682,33.0744432 3.08705796,33.0072888 C2.50884086,32.9615333 1.95051572,33.1409017 1.38384086,33.2745146 C0.932588409,33.3809874 0.430992141,33.4337018 0,33.1654322 C0.383718075,33.6541283 0.8581778,34.1205557 1.3654224,34.2903554 C2.09319745,34.5342686 2.83644401,34.3696881 3.57367387,34.4208368 Z" id="path4728"></path>
                    <path d="M1.86816502,34.3126109 C2.47067616,34.9509173 3.20119035,35.0928022 3.9588814,34.9482833 C4.15550603,34.9107049 4.34764648,34.8423965 4.53802044,34.7698736 C4.72975323,34.696824 4.92053484,34.6162235 5.11552886,34.5580999 C5.29761387,34.5038394 5.47603,34.4571298 5.66355039,34.499625 C5.77701381,34.5254382 5.8897978,34.5614363 6,34.6044583 C6,34.6044583 5.23537885,33.6179368 3.98334058,33.5143328 C2.98581368,33.4316251 1.89724427,33.7329549 1,33 C1.22529623,33.4937875 1.52600826,33.9499966 1.86816502,34.3126109 Z" id="path4730"></path>
                    <path d="M60.310669,13.9897763 C59.8019968,14.1804945 59.3532041,14.5878307 59,15 C59.4215858,14.7455852 59.9441044,14.7212962 60.4191323,14.7428589 C61.0159841,14.7701221 61.6080989,14.8323316 62.2009425,14.7246422 C63.0628188,14.568003 63.7521012,13.843051 64,13 C63.5841228,13.3029928 63.0823738,13.52432 62.5788029,13.6119338 C61.821989,13.7436644 61.0408833,13.7159056 60.310669,13.9897763 Z" id="path4732"></path>
                    <path d="M64.0926055,13.1755384 C63.8859951,13.1525216 63.6812641,13.110673 63.4766674,13.0744041 C63.2734132,13.0385538 63.0689507,13.0070278 62.8620717,13.001448 C62.0673129,12.9801052 61.3278649,13.1922778 60.7683117,13.7992227 C60.4500054,14.1441951 60.1840565,14.5611472 60,15 C60.8545001,14.2760184 62.0055579,14.3852433 63.026125,14.1877177 C64.3064655,13.9396947 65,13.0227908 65,13.0227908 C64.8901837,13.0727302 64.7776823,13.1170897 64.66357,13.1529401 C64.4740092,13.2126442 64.2855225,13.1968812 64.0926055,13.1755384 Z" id="path4734"></path>
                    <path d="M40,39 C39.7521012,38.1570729 39.0626974,37.431997 38.2009425,37.2753578 C37.6080989,37.1676684 37.0159841,37.2298779 36.4191323,37.2571411 C35.9442258,37.2788277 35.4218287,37.2541669 35,37 C35.3527183,37.4122932 35.8018753,37.8195055 36.3104261,38.0102237 C37.0408833,38.2839705 37.821989,38.2563356 38.5788029,38.388314 C39.0820094,38.4755561 39.5840014,38.697379 40,39 Z" id="path4736"></path>
                    <path d="M39.8624745,40.9985522 C40.0688165,40.9929732 40.2738159,40.9614516 40.4770701,40.9256063 C40.6815326,40.8897609 40.8863978,40.8479181 41.0930083,40.8244861 C41.2860595,40.8031463 41.4745462,40.7873855 41.66357,40.8466628 C41.7776823,40.8825082 41.8905864,40.9268616 42,40.9769335 C42,40.9769335 41.3064655,40.0605758 40.026125,39.812169 C39.0055579,39.6145315 37.8545001,39.7234622 37,39 C37.1840565,39.4387916 37.4504081,39.8552671 37.7683117,40.2006098 C38.3285361,40.807749 39.0679841,41.0198921 39.8624745,40.9985522 Z" id="path4738"></path>
                    <path d="M33.5788029,6.38806618 C34.0820094,6.47568003 34.583637,6.69713117 35,7 C34.7521012,6.15707293 34.0626974,5.43199703 33.2006996,5.27535783 C32.607856,5.16766838 32.0159841,5.22975401 31.4188894,5.25714109 C30.9439829,5.27870376 30.4218287,5.25416692 30,5 C30.3527183,5.41216928 30.8016324,5.81950555 31.3105475,6.01022368 C32.0408833,6.28372266 32.821989,6.25608774 33.5788029,6.38806618 Z" id="path4740"></path>
                    <path d="M36.0262626,6.81228229 C35.0055586,6.61461717 33.8543462,6.72342366 33,6 C33.1838127,6.43885284 33.4503343,6.8553864 33.7681463,7.20077726 C34.3283116,7.80772218 35.0678588,8.01989483 35.8624558,7.99855202 C36.068557,7.9929722 36.2735839,7.96144622 36.477134,7.92559588 C36.6816239,7.88974553 36.886248,7.84789688 37.0928862,7.82446164 C37.2860976,7.80311883 37.4747439,7.78721634 37.6635245,7.84664142 C37.7779207,7.88249177 37.8908399,7.92685133 37.9999997,7.97679072 C38.0005368,7.97679072 37.3069092,7.06030529 36.0262626,6.81228229 Z" id="path4742"></path>
                    <path d="M30.4675612,50.3239083 C29.8402269,50.0091109 29.168903,49.9032359 28.5014525,49.7532202 C27.9702587,49.6341502 27.398672,49.4426642 27,49 C27.2810901,49.6157713 27.6692489,50.2557336 28.1814912,50.646874 C28.9167243,51.2086082 29.7883525,51.4148602 30.5905381,51.8096136 C31.1242219,52.0719447 31.6204178,52.4993717 32,53 C31.9495089,51.8864279 31.3794439,50.7819667 30.4675612,50.3239083 Z" id="path4744"></path>
                    <path d="M29.5005182,50.4610149 C28.6416509,50.0385431 27.6033043,49.8689445 27,49 C27.0712065,49.4485944 27.2189843,49.896128 27.4283363,50.2892946 C27.79583,50.981082 28.4043772,51.3506453 29.109858,51.5174593 C29.2929952,51.560953 29.4803999,51.5796499 29.667317,51.594634 C29.8553313,51.6096181 30.044565,51.6190329 30.231482,51.6462164 C30.4060843,51.6718087 30.5758093,51.7013791 30.7302932,51.800831 C30.8235689,51.8608999 30.9137963,51.928262 31,52 C30.9996342,51.9998674 30.5784917,50.9908946 29.5005182,50.4610149 Z" id="path4746"></path>
                    <path d="M22.8352304,23.5340383 C23.2945474,23.9212059 23.6766178,24.4440731 23.92686,25 C24.1501584,23.9924572 23.8607146,22.843844 23.078303,22.1740583 C22.5401203,21.7134912 21.9071139,21.4268153 21.2887936,21.1018284 C20.7969821,20.8429608 20.2831992,20.5091421 20,20 C20.1250055,20.6295651 20.3495759,21.3110469 20.7562773,21.8070607 C21.3401372,22.5180217 22.1447515,22.9518547 22.8352304,23.5340383 Z" id="path4748"></path>
                    <path d="M21.8208383,25.7421224 C22.0331985,25.8601527 22.2582618,25.9505448 22.4843515,26.0358631 C22.7117245,26.122116 22.9425619,26.201693 23.1644173,26.3018319 C23.3721582,26.3954283 23.5719435,26.4926298 23.7306683,26.6662038 C23.826904,26.7711493 23.9163391,26.8839724 24,27 C24,27 23.804449,25.6541337 22.6434613,24.6360553 C21.7184435,23.8246635 20.490604,23.246128 20.0249515,22 C19.9687498,22.5557039 20.0077573,23.138245 20.1392795,23.6792619 C20.3707585,24.6304476 21.002963,25.2881596 21.8208383,25.7421224 Z" id="path4750"></path>
                    <path d="M20.6430004,44.5732652 C21.3079893,44.76355 21.9610567,45.002912 22.6476176,44.9999732 C23.6457253,44.9954181 24.5594747,44.1381818 25,43 C24.4743216,43.3259085 23.8683723,43.5139891 23.2861522,43.5107565 C22.4110056,43.5064953 21.5385838,43.2686027 20.6658214,43.4731404 C20.0578284,43.6155233 19.4752678,44.0819045 19,44.5791428 C19.5221587,44.3242053 20.1134618,44.4223599 20.6430004,44.5732652 Z" id="path4752"></path>
                    <path d="M23.5584334,44.6626701 C25.0462061,44.6425377 26,43.6268198 26,43.6268198 C25.8672283,43.6652951 25.7321934,43.6963139 25.5967813,43.7154024 C25.3724775,43.7479126 25.1636386,43.6839362 24.9503992,43.6110121 C24.7223235,43.5333159 24.5002829,43.4316099 24.2767335,43.3376586 C24.0546929,43.2444529 23.8303891,43.1560194 23.5991702,43.1008417 C22.7088703,42.8877363 21.8366757,42.9881001 21.0918464,43.6369606 C20.6686364,44.0062041 20.2904382,44.4793905 20,45 C21.0983844,44.2698642 22.3730433,44.678776 23.5584334,44.6626701 Z" id="path4754"></path>
                    <path d="M57.360725,4.98169907 C57.0731795,5.58038889 56.9945748,6.32806489 57.0002854,7 C57.1677963,6.41541021 57.588589,5.95759592 58.0034472,5.58188624 C58.5245673,5.10947281 59.067634,4.67349485 59.4864113,4.08091921 C60.0953178,3.2190704 60.1431301,1.979765 59.7337586,1 C59.6062219,1.62464386 59.3473414,2.24591869 58.9884695,2.74528439 C58.4496577,3.49632942 57.7732317,4.12209629 57.360725,4.98169907 Z" id="path4756"></path>
                    <path d="M57.0028597,4.55237521 C56.9837961,5.0368111 57.0604219,5.53864353 57.2214725,6 C57.4185458,4.85298757 58.4639507,4.12940713 59.178713,3.26491464 C60.0756939,2.18006587 59.9983252,1 59.9983252,1 C59.942496,1.11423734 59.8796108,1.22708295 59.8095458,1.33424569 C59.6933072,1.51203841 59.5237151,1.63195862 59.3463244,1.75095101 C59.1560594,1.87840972 58.9541583,1.98974763 58.7563422,2.1058406 C58.559764,2.22112173 58.3651664,2.34069401 58.1878994,2.48091019 C57.5043322,3.02182687 57.0362829,3.70029226 57.0028597,4.55237521 Z" id="path4758"></path>
                    <path d="M30.9878211,19.4561789 C30.7391562,18.752165 30.5390941,18.0390655 30.1157987,17.3943538 C29.5002119,16.4569374 28.2221312,15.9501063 27,16.0038835 C27.5948176,16.3642393 28.1240781,16.8570736 28.4781429,17.4063861 C29.0107943,18.2318283 29.3467744,19.1504596 30.0532086,19.8875009 C30.5451694,20.4007165 31.2922942,20.7572662 32,21 C31.4665009,20.6133694 31.1854814,20.0164187 30.9878211,19.4561789 Z" id="path4760"></path>
                    <path d="M31,21 C29.9133124,20.298497 29.581787,18.9237403 28.9807784,17.8214749 C28.2259968,16.4388787 27,16 27,16 C27.0943953,16.1066447 27.1844768,16.2196421 27.2664383,16.3375054 C27.4019412,16.5326827 27.458147,16.7569204 27.5105465,16.9888625 C27.5664986,17.2370242 27.6013893,17.4900519 27.643385,17.7411873 C27.6848733,17.9905655 27.7306753,18.2399438 27.8048974,18.4812122 C28.0898595,19.4088452 28.5977416,20.1802282 29.4483141,20.5873432 C29.9319631,20.8184743 30.4704222,20.9606672 31,21 Z" id="path4762"></path>
                    <path d="M57.1002406,19.0162138 C56.3951189,18.9219156 55.6419884,19.2518738 55,19.6703114 C55.6371761,19.5818319 56.2674775,19.9751119 56.8168857,20.4082676 C57.5067684,20.9530066 58.1723602,21.5540508 58.9314488,21.862103 C60.0351922,22.3092922 61.2460675,21.6305504 62,20.3795161 C61.3430017,20.556475 60.6290573,20.5213912 59.9863814,20.2532147 C59.020477,19.8503508 58.1124351,19.1512434 57.1002406,19.0162138 Z" id="path4764"></path>
                    <path d="M62.0065431,19.3160218 C61.8069793,19.1783976 61.6184297,19.0208136 61.4268266,18.8700061 C61.2366412,18.7203075 61.0428571,18.5740587 60.8355507,18.4556551 C60.0370774,18.0002755 59.1868048,17.833574 58.3367503,18.2008593 C57.8536532,18.4096982 57.3901854,18.7264679 57,19.1117417 C58.2040349,18.775505 59.3241003,19.5211644 60.4534351,19.8562922 C61.8706652,20.2770501 63,19.6399376 63,19.6399376 C62.8654308,19.6353789 62.7303162,19.6233045 62.5974918,19.6011269 C62.3775354,19.5640411 62.1929117,19.4446518 62.0065431,19.3160218 Z" id="path4766"></path>
                    <path d="M38,8 C38.3374767,7.74571972 38.7550031,7.72114775 39.1349907,7.7428662 C39.6125544,7.76997464 40.0863891,7.83259353 40.5605966,7.72447685 C41.2503418,7.56769182 41.8018645,6.84258085 42,6 C41.6671224,6.30326569 41.2658794,6.52441344 40.8631448,6.61223843 C40.2579242,6.74413443 39.6328154,6.71655041 39.048353,6.99017121 C38.6413922,7.18072289 38.2824114,7.58782498 38,8 Z" id="path4768"></path>
                    <path d="M44,5.02340638 C43.912479,5.07301304 43.8220726,5.1178018 43.7308419,5.1533116 C43.5794319,5.21273254 43.428434,5.19702971 43.2741387,5.17561676 C43.1091265,5.15277628 42.9453509,5.11066415 42.7814378,5.07461902 C42.6187614,5.03910921 42.4548483,5.00752511 42.2901109,5.00145811 C41.6543812,4.98004516 41.0628929,5.19203335 40.6145708,5.79926889 C40.3598392,6.14437425 40.1471508,6.56156987 40,7 C40.6835434,6.27588545 41.6047814,6.38509149 42.4207742,6.18755703 C43.4453337,5.94023747 44,5.02340638 44,5.02340638 Z" id="path4770"></path>
                    <path d="M61.0482347,8.00982879 C61.6323968,8.28392517 62.257459,8.25634115 62.8630035,8.38776157 C63.2660368,8.47511097 63.6672054,8.69673431 64,9 C63.8018399,8.15694356 63.2502486,7.43214965 62.5606663,7.27552315 C62.0862755,7.16788205 61.6127548,7.22986684 61.1351318,7.2571338 C60.755097,7.27901078 60.3370214,7.25428028 60,7 C60.2819493,7.41169943 60.641099,7.81880152 61.0482347,8.00982879 Z" id="path4772"></path>
                    <path d="M60,7 C60.1472882,7.43846924 60.3603888,7.85570209 60.6148456,8.20083824 C61.0624807,8.8079495 61.6541064,9.01995661 62.2901109,8.99854175 C62.4553979,8.99318803 62.619311,8.96142266 62.7817126,8.92537431 C62.9456257,8.88932596 63.1091265,8.84721007 63.2744135,8.82436756 C63.4287088,8.80313115 63.5795693,8.78724847 63.7308419,8.8466747 C63.8226222,8.88272305 63.912479,8.92698042 64,8.97676997 C64,8.97676997 63.4450589,8.05985708 62.4207742,7.81198008 C61.6045066,7.61424955 60.6838182,7.72346533 60,7 Z" id="path4774"></path>
                    <path d="M10.5603033,33.2750258 C10.0859567,33.1673932 9.61248019,33.2293731 9.13502595,33.2571134 C8.75502657,33.2789887 8.33698996,33.2541016 8,33 C8.28229591,33.4118253 8.6412878,33.8192122 9.04826129,34.0099073 C9.63249324,34.2839819 10.2574971,34.2564001 10.8631095,34.3878101 C11.2658566,34.4751526 11.6672364,34.6967583 12,35 C11.8014854,34.1563763 11.2499456,33.4317984 10.5603033,33.2750258 Z" id="path4776"></path>
                    <path d="M8,33 C8.14715581,33.4386134 8.35985161,33.8556351 8.61472932,34.2007443 C9.06251718,34.8079865 9.65402583,35.0197986 10.2901896,34.9985639 C10.4553449,34.9930321 10.6189887,34.9614477 10.7816708,34.9254021 C10.9455894,34.8893566 11.1090959,34.847244 11.2743886,34.8244033 C11.4286892,34.8029901 11.5796922,34.7872871 11.73097,34.8467087 C11.8226161,34.8827542 11.9126134,34.9270081 12,34.9766153 C12,34.9766153 11.4450398,34.0597742 10.42072,33.8119166 C9.60469909,33.6149153 8.68356691,33.7239441 8,33 Z" id="path4778"></path>
                    <path d="M49.872412,9.10729355 C50.2996638,9.30424955 50.6963369,9.62477396 51,10 C50.9599363,9.16440627 50.5036631,8.3361965 49.7743054,7.99276673 C49.2724474,7.7566305 48.7354804,7.67736588 48.2013449,7.56494876 C47.7763582,7.47543701 47.3193771,7.33212779 47,7 C47.2248098,7.46202532 47.5355512,7.94168174 47.9453902,8.23493068 C48.5336047,8.65687161 49.230968,8.81133213 49.872412,9.10729355 Z" id="path4780"></path>
                    <path d="M48.5823649,11.5176996 C48.7197177,11.5607894 48.8599953,11.5799593 49.000507,11.5945487 C49.1414866,11.6096471 49.2831682,11.6189776 49.4234459,11.6459511 C49.5545979,11.6713979 49.6816551,11.701425 49.7977147,11.8006673 C49.867912,11.8608912 49.9355354,11.9284099 50,12 C50,12 49.684229,10.9907826 48.8755557,10.460812 C48.2311442,10.0382266 47.4524218,9.86892106 47,9 C47.053233,9.44854105 47.1642618,9.89606424 47.3210358,10.2896404 C47.5965603,10.9807736 48.053194,11.3504298 48.5823649,11.5176996 Z" id="path4782"></path>
                    <path d="M48.0348912,30.5462083 C48.5792753,30.0435505 49.1523319,29.5732786 49.5697192,28.9654592 C50.1768162,28.0821755 50.1130559,26.8941201 49.5568886,26 C49.4720495,26.6089277 49.2379565,27.2275834 48.8797471,27.7404618 C48.3417783,28.5110723 47.6359642,29.1757825 47.2509153,30.0375167 C46.9829128,30.6378245 46.9647143,31.3594253 47.0351517,32 C47.1689565,31.4253053 47.6014002,30.9464135 48.0348912,30.5462083 Z" id="path4784"></path>
                    <path d="M49.975909,24 C49.9258024,24.1137403 49.8676327,24.2263374 49.800968,24.3348194 C49.6903879,24.5138317 49.5129991,24.6425469 49.3265393,24.7709191 C49.1268329,24.9080933 48.9122962,25.0312071 48.7027988,25.1585505 C48.4947414,25.285208 48.2888436,25.4152949 48.1052635,25.5639003 C47.3977241,26.1364883 46.9466209,26.8228166 47.0050786,27.6378601 C47.038051,28.1012803 47.1808836,28.5736168 47.4139943,29 C47.5065763,27.8901463 48.6018658,27.1124829 49.3088292,26.2285094 C50.1954853,25.1186557 49.975909,24 49.975909,24 Z" id="path4786"></path>
                    <path d="M26.5606909,34.2751081 C26.0865505,34.1672514 25.6129218,34.2297463 25.135327,34.2571592 C24.7552215,34.2786979 24.337502,34.2542221 24,34 C24.2822325,34.4118463 24.6412282,34.8192869 25.0484567,35.0100351 C25.6324964,35.2836746 26.2577323,35.2560986 26.8630098,35.3879416 C27.2658884,35.4754018 27.6672317,35.6969895 28,36 C27.8022069,35.1568899 27.2501519,34.4319165 26.5606909,34.2751081 Z" id="path4788"></path>
                    <path d="M25,36 C25.1472471,36.4385351 25.3601259,36.8555752 25.6145903,37.2007815 C26.0625553,37.8079699 26.6542311,38.020348 27.2900385,37.9984856 C27.4553909,37.9927903 27.6190459,37.9613745 27.7817108,37.9253658 C27.9457902,37.889357 28.1093037,37.8472856 28.2742318,37.8241371 C28.4286927,37.8028258 28.5793345,37.787026 28.730825,37.8467344 C28.8222002,37.8827432 28.9125853,37.9272029 29,37.9771743 C29,37.9771743 28.4451006,37.0602372 27.4205948,36.8124015 C26.6052901,36.6150882 25.6838997,36.7242168 25,36 Z" id="path4790"></path>
                </g>
                <text id="Huetor" font-family="Athelas-Regular, Athelas" font-size="48" font-weight="normal">
                    <tspan x="128" y="73">Huetor</tspan>
                </text>
                <text id="Alojamientos" font-family="Athelas-Regular, Athelas" font-size="36" font-weight="normal">
                    <tspan x="71" y="42">Alojamientos</tspan>
                </text>
            </g>
        </g>
    </g>
</svg>